<?xml version="1.0" standalone="no"?>
<!DOCTYPE svg PUBLIC "-//W3C//DTD SVG 20010904//EN"
 "http://www.w3.org/TR/2001/REC-SVG-20010904/DTD/svg10.dtd">
<svg version="1.0" xmlns="http://www.w3.org/2000/svg"
 width="471.000000pt" height="471.000000pt" viewBox="0 0 471.000000 471.000000"
 preserveAspectRatio="xMidYMid meet">
<metadata>
Created by potrace 1.11, written by Peter Selinger 2001-2013
</metadata>
<g transform="translate(0.000000,471.000000) scale(0.100000,-0.100000)"
fill="#000000" stroke="none">
<path d="M1353 4305 c-102 -31 -185 -104 -232 -204 -22 -47 -26 -70 -26 -146
0 -104 16 -152 76 -232 l39 -52 0 -1495 c0 -1473 0 -1496 20 -1549 26 -70 75
-125 141 -162 49 -27 63 -30 144 -30 81 0 95 3 144 30 69 38 126 103 147 168
15 48 56 92 577 614 l560 561 27 -36 c39 -53 69 -78 120 -101 99 -43 195 -35
290 22 57 34 117 110 127 160 5 23 17 33 67 56 70 32 137 99 169 169 19 42 22
69 25 243 l4 195 45 24 c64 34 127 100 159 168 24 49 28 70 29 147 0 80 -3 97
-31 156 -51 107 -298 377 -505 552 -429 361 -977 621 -1504 712 -255 44 -525
58 -612 30z"/>
</g>
</svg>
